<svg id="palette_black_24dp" xmlns="http://www.w3.org/2000/svg" width="24" height="24" viewBox="0 0 24 24">
  <g id="그룹_534" data-name="그룹 534">
    <rect id="사각형_333" data-name="사각형 333" width="24" height="24" fill="none"/>
  </g>
  <g id="그룹_538" data-name="그룹 538" transform="translate(24 24) rotate(180)">
    <g id="그룹_537" data-name="그룹 537">
      <g id="그룹_536" data-name="그룹 536">
        <g id="그룹_535" data-name="그룹 535">
          <path id="패스_783" data-name="패스 783" d="M12,22A10,10,0,0,1,12,2c5.51,0,10,4.04,10,9a6,6,0,0,1-6,6H14.23a.5.5,0,0,0-.5.5.528.528,0,0,0,.13.33,2.544,2.544,0,0,1,.64,1.67A2.5,2.5,0,0,1,12,22ZM12,4a8,8,0,0,0,0,16,.5.5,0,0,0,.5-.5.541.541,0,0,0-.14-.35A2.493,2.493,0,0,1,14.23,15H16a4,4,0,0,0,4-4C20,7.14,16.41,4,12,4Z"/>
        </g>
      </g>
    </g>
  </g>
</svg>
