<svg xmlns="http://www.w3.org/2000/svg" width="20.4" height="20.4" viewBox="0 0 20.4 20.4">
  <path id="palette_FILL0_wght500_GRAD0_opsz24" d="M12,22.2a9.93,9.93,0,0,1-3.962-.8A10.22,10.22,0,0,1,2.6,15.962,9.93,9.93,0,0,1,1.8,12a9.738,9.738,0,0,1,.825-3.988A10.275,10.275,0,0,1,4.863,4.775,10.617,10.617,0,0,1,8.163,2.6a10.172,10.172,0,0,1,4.012-.8,10.631,10.631,0,0,1,3.863.7,10.214,10.214,0,0,1,3.187,1.938A9.146,9.146,0,0,1,21.4,7.375a8.522,8.522,0,0,1,.8,3.675,5.849,5.849,0,0,1-1.762,4.525A6.163,6.163,0,0,1,16.1,17.2H14.4a.341.341,0,0,0-.287.112.416.416,0,0,0-.088.263,1.589,1.589,0,0,0,.338.775,2.1,2.1,0,0,1,.337,1.2,2.527,2.527,0,0,1-.75,1.962A2.772,2.772,0,0,1,12,22.2ZM12,12Zm-.025,7.925a.466.466,0,0,0,.325-.113.4.4,0,0,0,.125-.312,1.326,1.326,0,0,0-.375-.8,2.116,2.116,0,0,1-.375-1.375,2.209,2.209,0,0,1,.75-1.738,2.661,2.661,0,0,1,1.825-.662H16.1a4.008,4.008,0,0,0,2.737-.95,3.647,3.647,0,0,0,1.088-2.9,6.344,6.344,0,0,0-2.3-5.013,8.066,8.066,0,0,0-5.45-1.987,7.932,7.932,0,0,0-5.725,2.3A7.53,7.53,0,0,0,4.075,12a7.665,7.665,0,0,0,2.3,5.613,7.6,7.6,0,0,0,5.6,2.312Z" transform="translate(22.2 22.2) rotate(180)"/>
</svg>
